# xmcd
#
# Track frame offsets: 
#        150
#        22257
#        38160
#        53917
#        73122
#        95947
#        116367
#        129725
#        150290
#        163609
#        186025
#        204582
#        218702
#        239396
#
# Disc length: 3419 seconds
#
# Revision: 2
# Processed by: cddbd v1.5.2PL0 Copyright (c) Steve Scherf et al.
# Submitted via: ExactAudioCopy v0.99pb5
#
DISCID=c70d590e
DTITLE=Elvis Costello and Allen Toussaint - River In Reverse
DYEAR=2006
DGENRE=R&B
TTITLE0=On Your Way Down
TTITLE1=Nearer To You
TTITLE2=Tears, Tears And More Tears
TTITLE3=The Sharpest Thorn
TTITLE4=Who's Gonna Help Brother Get Further?
TTITLE5=The River In Reverse
TTITLE6=Freedom For The Stallion
TTITLE7=Broken Promise Land
TTITLE8=Ascension Day
TTITLE9=International Echo
TTITLE10=All These Things
TTITLE11=Wonder Woman
TTITLE12=Six-Fingered Man
TTITLE13=The Greatest Love
EXTD=YEAR: 2006
EXTT0=
EXTT1=
EXTT2=
EXTT3=
EXTT4=
EXTT5=
EXTT6=
EXTT7=
EXTT8=
EXTT9=
EXTT10=
EXTT11=
EXTT12=
EXTT13=
PLAYORDER=
